<svg width="79" height="84" viewBox="0 0 79 84" fill="none" xmlns="http://www.w3.org/2000/svg">
<path d="M66.88 13.12L65.4241 14.4913L65.4323 14.5L65.4406 14.5086L66.88 13.12ZM66.88 71.8L65.4325 70.4198L65.4321 70.4203L66.88 71.8ZM2.32 82H0.320001V84H2.32V82ZM2.32 2.8V0.799997H0.320001V2.8H2.32ZM47.92 58.96L49.5603 60.1044L49.5664 60.0956L49.5725 60.0867L47.92 58.96ZM47.92 25.96L46.2675 27.0867L46.2736 27.0956L46.2797 27.1044L47.92 25.96ZM26.8 20.68V18.68H24.8V20.68H26.8ZM26.8 64.12H24.8V66.12H26.8V64.12ZM38.68 4.8C50.6247 4.8 59.4277 8.12473 65.4241 14.4913L68.3359 11.7487C61.3723 4.35526 51.3753 0.799997 38.68 0.799997V4.8ZM65.4406 14.5086C71.531 20.8218 74.72 30.0143 74.72 42.4H78.72C78.72 29.3457 75.349 19.0182 68.3194 11.7314L65.4406 14.5086ZM74.72 42.4C74.72 54.784 71.5316 64.0233 65.4325 70.4198L68.3275 73.1802C75.3484 65.8167 78.72 55.456 78.72 42.4H74.72ZM65.4321 70.4203C59.4372 76.7112 50.6314 80 38.68 80V84C51.3686 84 61.3628 80.4888 68.3279 73.1797L65.4321 70.4203ZM38.68 80H2.32V84H38.68V80ZM4.32 82V2.8H0.320001V82H4.32ZM2.32 4.8H38.68V0.799997H2.32V4.8ZM35.68 66.12C41.8285 66.12 46.6565 64.2664 49.5603 60.1044L46.2797 57.8156C44.3835 60.5336 41.0515 62.12 35.68 62.12V66.12ZM49.5725 60.0867C52.3141 56.0656 53.52 50.0518 53.52 42.4H49.52C49.52 49.7882 48.3259 54.8144 46.2675 57.8333L49.5725 60.0867ZM53.52 42.4C53.52 34.7544 52.3165 28.7662 49.5603 24.8156L46.2797 27.1044C48.3235 30.0338 49.52 35.0056 49.52 42.4H53.52ZM49.5725 24.8333C46.6759 20.5851 41.8457 18.68 35.68 18.68V22.68C41.0343 22.68 44.3641 24.2949 46.2675 27.0867L49.5725 24.8333ZM35.68 18.68H26.8V22.68H35.68V18.68ZM24.8 20.68V64.12H28.8V20.68H24.8ZM26.8 66.12H35.68V62.12H26.8V66.12Z" fill="black"/>
</svg>
